<svg width="14" height="18" viewBox="0 0 14 18" fill="none" xmlns="http://www.w3.org/2000/svg">
<path fill-rule="evenodd" clip-rule="evenodd" d="M6.60449 8C8.81363 8 10.6045 6.20914 10.6045 4C10.6045 1.79086 8.81363 0 6.60449 0C4.39535 0 2.60449 1.79086 2.60449 4C2.60449 6.20914 4.39535 8 6.60449 8ZM2.2164 7C2.4588 7 2.68287 7.12199 2.8334 7.31198C3.75003 8.46888 5.09947 9.2 6.60415 9.2C8.10883 9.2 9.45827 8.46888 10.3749 7.31198C10.5254 7.12199 10.7495 7 10.9919 7C11.3464 7 11.6503 7.25355 11.7137 7.60237L13.1755 15.6422C13.3987 16.8699 12.4555 18 11.2077 18H2.00058C0.752768 18 -0.190378 16.8699 0.0328367 15.6422L1.49463 7.60238C1.55805 7.25355 1.86186 7 2.2164 7Z" fill="white"/>
</svg>
