<svg width="84" height="69" viewBox="0 0 84 69" fill="none" xmlns="http://www.w3.org/2000/svg">
<g filter="url(#filter0_d_30_2)">
<path d="M77.8961 29.4436C78.6968 29.7925 78.6968 30.9282 77.8961 31.2771L15.0157 58.676C14.0091 59.1146 13.1336 57.8454 13.9012 57.0602L39.317 31.0594C39.6968 30.6708 39.6968 30.05 39.317 29.6614L13.9012 3.66054C13.1336 2.87531 14.0091 1.60614 15.0157 2.04476L77.8961 29.4436Z" fill="#EDEBEB"/>
<path d="M77.8961 29.4436C78.6968 29.7925 78.6968 30.9282 77.8961 31.2771L15.0157 58.676C14.0091 59.1146 13.1336 57.8454 13.9012 57.0602L39.317 31.0594C39.6968 30.6708 39.6968 30.05 39.317 29.6614L13.9012 3.66054C13.1336 2.87531 14.0091 1.60614 15.0157 2.04476L77.8961 29.4436Z" stroke="#4873A1" stroke-width="3"/>
</g>
<path fill-rule="evenodd" clip-rule="evenodd" d="M24.5162 35.7172L36.1285 30.3597L24.5162 25.0023V25.0021L24.516 25.0022L24.5156 25.002V25.0024L12.9034 30.3598L24.5156 35.7173V35.7174L24.5158 35.7173L24.5162 35.7175V35.7172Z" fill="#B2B2C4"/>
<path d="M36.1285 30.3597L36.5474 31.2677L38.5155 30.3597L36.5474 29.4517L36.1285 30.3597ZM24.5162 35.7172L24.0973 34.8091L23.5162 35.0772V35.7172H24.5162ZM24.5162 25.0023H23.5162V25.6422L24.0973 25.9103L24.5162 25.0023ZM24.5162 25.0021H25.5162V23.4406L24.0979 24.0938L24.5162 25.0021ZM24.516 25.0022L24.0968 25.9101L24.5155 26.1034L24.9343 25.9105L24.516 25.0022ZM24.5156 25.002L24.9348 24.0941L23.5156 23.4388V25.002H24.5156ZM24.5156 25.0024L24.9346 25.9104L25.5156 25.6423V25.0024H24.5156ZM12.9034 30.3598L12.4844 29.4518L10.5163 30.3598L12.4844 31.2678L12.9034 30.3598ZM24.5156 35.7173H25.5156V35.0773L24.9346 34.8092L24.5156 35.7173ZM24.5156 35.7174H23.5156V37.2815L24.9353 36.6251L24.5156 35.7174ZM24.5158 35.7173L24.9347 34.8093L24.5153 34.6158L24.0961 34.8097L24.5158 35.7173ZM24.5162 35.7175L24.0973 36.6255L25.5162 37.2802V35.7175H24.5162ZM35.7095 29.4517L24.0973 34.8091L24.9351 36.6252L36.5474 31.2677L35.7095 29.4517ZM24.0973 25.9103L35.7095 31.2677L36.5474 29.4517L24.9351 24.0942L24.0973 25.9103ZM25.5162 25.0023V25.0021H23.5162V25.0023H25.5162ZM24.0979 24.0938L24.0977 24.0939L24.9343 25.9105L24.9345 25.9104L24.0979 24.0938ZM24.0964 25.9099L24.0968 25.9101L24.9352 24.0943L24.9348 24.0941L24.0964 25.9099ZM25.5156 25.0024V25.002H23.5156V25.0024H25.5156ZM24.0967 24.0943L12.4844 29.4518L13.3223 31.2678L24.9346 25.9104L24.0967 24.0943ZM12.4844 31.2678L24.0967 36.6253L24.9346 34.8092L13.3223 29.4518L12.4844 31.2678ZM25.5156 35.7174V35.7173H23.5156V35.7174H25.5156ZM24.0961 34.8097L24.096 34.8098L24.9353 36.6251L24.9355 36.625L24.0961 34.8097ZM24.0969 36.6254L24.0973 36.6255L24.9351 34.8095L24.9347 34.8093L24.0969 36.6254ZM25.5162 35.7175V35.7172H23.5162V35.7175H25.5162Z" fill="#4873A1"/>
<path fill-rule="evenodd" clip-rule="evenodd" d="M11.6128 28.7032L0 23.3455L11.6128 17.9878V28.7032ZM11.613 28.7033L23.2258 23.3456L11.613 17.9879V28.7033Z" fill="#4873A1"/>
<path fill-rule="evenodd" clip-rule="evenodd" d="M11.6128 43.1388L0 37.7811L11.6128 32.4233V43.1388ZM11.613 43.1388L23.2258 37.7811L11.613 32.4233V43.1388Z" fill="#4873A1"/>
<defs>
<filter id="filter0_d_30_2" x="8.09766" y="0.444824" width="75.8994" height="67.8311" filterUnits="userSpaceOnUse" color-interpolation-filters="sRGB">
<feFlood flood-opacity="0" result="BackgroundImageFix"/>
<feColorMatrix in="SourceAlpha" type="matrix" values="0 0 0 0 0 0 0 0 0 0 0 0 0 0 0 0 0 0 127 0" result="hardAlpha"/>
<feOffset dy="4"/>
<feGaussianBlur stdDeviation="2"/>
<feComposite in2="hardAlpha" operator="out"/>
<feColorMatrix type="matrix" values="0 0 0 0 0 0 0 0 0 0 0 0 0 0 0 0 0 0 0.25 0"/>
<feBlend mode="normal" in2="BackgroundImageFix" result="effect1_dropShadow_30_2"/>
<feBlend mode="normal" in="SourceGraphic" in2="effect1_dropShadow_30_2" result="shape"/>
</filter>
</defs>
</svg>
