<svg width="17" height="20" viewBox="0 0 17 20" fill="none" xmlns="http://www.w3.org/2000/svg">
<path d="M6.99601 2.03914C6.52639 0.875659 5.50687 -0.0667719 4.25451 0.00955727C3.937 0.0289094 3.62707 0.0797401 3.36442 0.180739C2.05579 0.68396 1.54298 1.57394 0.843127 2.84696C-0.264364 4.86144 -0.0598137 6.46738 0.225667 8.77793C0.525878 11.2077 1.09379 12.6043 2.43823 14.6001C3.89514 16.7629 5.06864 17.9101 7.37791 18.9531C9.45034 19.8891 10.8717 20.247 13.0894 19.8237C14.09 19.6327 14.7531 19.6082 15.5593 18.9531C15.6545 18.8757 15.7471 18.7846 15.8364 18.684C16.806 17.5916 16.3643 15.9411 15.3607 14.8798L14.8058 14.293C13.8196 13.2501 12.2184 13.0868 11.042 13.9092C10.4094 14.3514 9.62408 14.5303 8.88518 14.3072C7.85046 13.9948 6.39636 13.4139 5.6799 12.478C5.02256 11.6193 4.77635 10.1875 4.68822 9.06571C4.60594 8.0183 5.11506 7.03824 5.92863 6.37345C7.18844 5.344 7.63192 3.61462 7.02298 2.10595L6.99601 2.03914Z" fill="white"/>
</svg>
