<svg width="15" height="19" viewBox="0 0 15 19" fill="none" xmlns="http://www.w3.org/2000/svg">
<path fill-rule="evenodd" clip-rule="evenodd" d="M14.1138 7C14.1138 8.78166 13.4428 10.4078 12.3377 11.6435C12.2497 11.7419 12.168 11.8459 12.0979 11.9578L8.75152 17.2965C7.96776 18.5469 6.14606 18.5469 5.3623 17.2965L2.01591 11.9578C1.94579 11.8459 1.86408 11.7419 1.77607 11.6435C0.671031 10.4078 0 8.78166 0 7C0 3.13401 3.15949 0 7.05691 0C10.9543 0 14.1138 3.13401 14.1138 7ZM7.05691 10C8.72723 10 10.0813 8.65685 10.0813 7C10.0813 5.34315 8.72723 4 7.05691 4C5.38659 4 4.03252 5.34315 4.03252 7C4.03252 8.65685 5.38659 10 7.05691 10Z" fill="white"/>
</svg>
