<svg width="14" height="20" viewBox="0 0 14 20" fill="none" xmlns="http://www.w3.org/2000/svg">
<path fill-rule="evenodd" clip-rule="evenodd" d="M8.51138 0.690138C7.71388 -0.230047 6.28611 -0.230045 5.48862 0.69014L0.488622 6.45937C0.17348 6.82299 0 7.28805 0 7.76923V18.9462C0 19.4985 0.447715 19.9462 1 19.9462C1.55228 19.9462 2 19.4985 2 18.9462V16C2 14.8954 2.89543 14 4 14C5.10457 14 6 14.8954 6 16V17.9462C6 19.0508 6.89543 19.9462 8 19.9462H12C13.1046 19.9462 14 19.0508 14 17.9462V7.76923C14 7.28805 13.8265 6.82299 13.5114 6.45937L8.51138 0.690138Z" fill="white"/>
</svg>
